<?xml version="1.0" standalone="no"?>
<!DOCTYPE svg PUBLIC "-//W3C//DTD SVG 20010904//EN"
 "http://www.w3.org/TR/2001/REC-SVG-20010904/DTD/svg10.dtd">
<svg version="1.0" xmlns="http://www.w3.org/2000/svg"
 width="630.000000pt" height="630.000000pt" viewBox="0 0 630.000000 630.000000"
 preserveAspectRatio="xMidYMid meet">
<metadata>
Created by potrace 1.15, written by Peter Selinger 2001-2017
</metadata>
<g transform="translate(0.000000,630.000000) scale(0.100000,-0.100000)"
fill="#000000" stroke="none">
<path d="M0 3150 l0 -3150 3150 0 3150 0 0 3150 0 3150 -3150 0 -3150 0 0
-3150z m1077 2131 c76 -41 121 -88 281 -293 l131 -167 -47 -27 c-26 -15 -154
-97 -286 -181 -131 -85 -244 -152 -250 -150 -6 3 -69 78 -139 168 -137 177
-166 231 -174 335 -9 108 35 199 134 275 113 87 235 101 350 40z m2015 -546
c638 -85 1190 -491 1463 -1078 28 -59 54 -107 58 -107 5 0 169 30 365 66 196
36 375 68 396 71 l39 6 -92 -175 c-50 -97 -91 -180 -91 -186 0 -6 106 -85 236
-177 129 -92 233 -169 230 -172 -3 -3 -220 -23 -483 -44 -263 -21 -479 -39
-480 -39 -2 0 -3 -27 -3 -59 0 -99 -20 -260 -46 -380 -80 -360 -254 -672 -522
-939 -46 -45 -96 -89 -111 -97 -77 -39 -421 -95 -594 -95 -174 -1 27 -51 237
-59 l149 -6 -129 -67 c-315 -163 -665 -235 -1005 -208 -452 36 -848 214 -1167
524 -178 173 -282 316 -387 531 -109 222 -165 430 -186 688 -16 198 6 436 60
635 10 35 29 57 114 132 195 173 354 270 550 339 106 37 265 71 339 72 100 1
12 20 -122 26 -225 10 -393 -26 -602 -131 -71 -35 -128 -62 -128 -60 0 2 21
38 46 81 293 497 812 837 1394 912 105 14 357 12 472 -4z m-1459 -98 c36 -46
67 -88 69 -94 2 -5 -35 -38 -81 -73 -104 -79 -248 -220 -331 -325 -34 -44 -67
-80 -72 -80 -5 0 -58 63 -118 140 l-109 140 72 42 c50 29 453 295 503 332 0 1
31 -37 67 -82z"/>
<path d="M2630 3224 c-399 -48 -778 -175 -1078 -362 -213 -132 -362 -285 -362
-370 0 -22 70 -179 133 -297 83 -156 192 -270 284 -295 104 -30 191 5 457 179
285 188 452 258 670 283 76 9 128 8 217 -1 237 -24 406 -87 771 -287 171 -94
249 -125 339 -131 61 -5 83 -2 120 14 111 49 194 168 280 402 44 119 46 137
20 189 -88 173 -454 410 -837 542 -280 97 -475 131 -764 135 -118 2 -231 1
-250 -1z m-380 -291 c59 -29 123 -93 152 -151 32 -66 32 -186 0 -257 -106
-231 -436 -247 -555 -27 -88 163 -28 353 138 434 54 26 68 29 140 26 58 -2 93
-9 125 -25z m1459 -8 c107 -59 166 -165 159 -290 -6 -116 -72 -216 -178 -268
-65 -32 -196 -32 -262 1 -177 87 -233 312 -118 471 61 84 149 123 265 118 66
-3 90 -8 134 -32z"/>
</g>
</svg>
